<mxfile host="app.diagrams.net" modified="2024-02-29T06:12:28.676Z" agent="Mozilla/5.0 (Windows NT 10.0; Win64; x64) AppleWebKit/537.36 (KHTML, like Gecko) Chrome/120.0.0.0 Safari/537.36" etag="6Dd0HoNwI9jrzW42pQ07" version="23.1.8" type="github">
  <diagram name="第 1 页" id="45RJ51b_TgAMtPwBoCNO">
    <mxGraphModel dx="828" dy="539" grid="1" gridSize="10" guides="1" tooltips="1" connect="1" arrows="1" fold="1" page="1" pageScale="1" pageWidth="827" pageHeight="1169" math="0" shadow="0">
      <root>
        <mxCell id="0" />
        <mxCell id="1" parent="0" />
      </root>
    </mxGraphModel>
  </diagram>
</mxfile>
